Coordinates
version=1
nRows=37
nColumns=38
inDegrees=no

Units are S.I. units (second, meters, Newtons, ...)
If the header above contains a line with 'inDegrees', this indicates whether rotational values are in degrees (yes) or radians (no).

endheader
time	pelvis_tilt	pelvis_list	pelvis_rotation	pelvis_tx	pelvis_ty	pelvis_tz	hip_flexion_r	hip_adduction_r	hip_rotation_r	knee_angle_r	ankle_angle_r	subtalar_angle_r	mtp_angle_r	hip_flexion_l	hip_adduction_l	hip_rotation_l	knee_angle_l	ankle_angle_l	subtalar_angle_l	mtp_angle_l	lumbar_extension	lumbar_bending	lumbar_rotation	arm_flex_r	arm_add_r	arm_rot_r	elbow_flex_r	pro_sup_r	wrist_flex_r	wrist_dev_r	arm_flex_l	arm_add_l	arm_rot_l	elbow_flex_l	pro_sup_l	wrist_flex_l	wrist_dev_l
0	-0.447091	1.46657	-1.03686	0.79262	2.19371	0.939547	-0.0427577	-0.0423016	-0.344727	0.432803	-0.213429	0	0	-0.183198	-0.0551213	0.00654534	0.118349	-0.319712	0	0	-0.610392	0.14418	-0.0136581	0.639257	-0.417927	0.330959	0.917198	1.16887	0	0	0.601731	-0.14	-0.0908627	0.825239	1.5708	0	0
0.01	-0.461328	1.46856	-1.02283	0.793511	2.19217	0.939247	-0.0419172	-0.0426805	-0.343204	0.433174	-0.212009	0	0	-0.184278	-0.0545911	0.00875911	0.11515	-0.318882	0	0	-0.606876	0.144416	-0.0115699	0.627008	-0.417652	0.314622	0.922197	1.18407	0	0	0.595821	-0.137257	-0.0879783	0.827145	1.5708	0	0
0.02	-0.475381	1.46985	-1.00869	0.794475	2.19055	0.938983	-0.0420713	-0.0429143	-0.342598	0.433155	-0.211404	0	0	-0.185902	-0.054213	0.0104863	0.112269	-0.318144	0	0	-0.60343	0.145104	-0.0102859	0.61504	-0.415896	0.296874	0.926072	1.19739	0	0	0.589346	-0.135033	-0.0843279	0.829475	1.5708	0	0
0.03	-0.488126	1.47103	-0.995363	0.79548	2.18893	0.938744	-0.0424908	-0.0433314	-0.342794	0.433	-0.212427	0	0	-0.187391	-0.053799	0.0127822	0.109702	-0.316963	0	0	-0.600795	0.145148	-0.00658428	0.597562	-0.415173	0.269647	0.935008	1.2239	0	0	0.58452	-0.131538	-0.0764679	0.831335	1.5708	0	0
0.04	-0.50116	1.47143	-0.981413	0.796537	2.18735	0.93854	-0.043721	-0.0431089	-0.342832	0.432236	-0.215647	0	0	-0.189115	-0.0540419	0.0145243	0.108036	-0.315844	0	0	-0.598131	0.146627	-0.00606783	0.585397	-0.412618	0.252036	0.938954	1.23578	0	0	0.577929	-0.129602	-0.0724175	0.833942	1.5708	0	0
0.05	-0.610997	1.48533	-0.877946	0.797422	2.18665	0.93725	-0.0682576	-0.0462807	-0.144572	0.322207	-0.258221	0	0	-0.169508	-0.0508692	0.0147806	0.114351	-0.310521	0	0	-0.581925	0.144754	0.00151717	0.567868	-0.409832	0.223081	0.947922	1.26594	0	0	0.570619	-0.124561	-0.0702314	0.836465	1.5708	0	0
0.06	-0.521013	1.46927	-0.958568	0.799059	2.18452	0.937991	-0.0467476	-0.0432912	-0.347164	0.436996	-0.208079	0	0	-0.193072	-0.0554732	0.0131096	0.109056	-0.310597	0	0	-0.599455	0.145203	0.0188953	0.525025	-0.420134	0.160374	0.980009	1.31076	0	0	0.581467	-0.109859	-0.0435609	0.829541	1.5708	0	0
0.07	-0.527485	1.46836	-0.950976	0.800143	2.18297	0.937928	-0.0481099	-0.0436618	-0.34927	0.439501	-0.20808	0	0	-0.196174	-0.0554637	0.0160726	0.107228	-0.308213	0	0	-0.598219	0.146783	0.0185713	0.511193	-0.408263	0.128051	0.982361	1.33332	0	0	0.573491	-0.108721	-0.0417449	0.833621	1.5708	0	0
0.08	-0.538326	1.46736	-0.939069	0.801258	2.18146	0.937844	-0.0488307	-0.0434225	-0.349511	0.442253	-0.208122	0	0	-0.198405	-0.056194	0.0170973	0.107093	-0.306809	0	0	-0.595999	0.149211	0.0156263	0.506971	-0.404501	0.124553	0.977482	1.33663	0	0	0.564304	-0.108874	-0.0428271	0.836762	1.5708	0	0
0.09	-0.937435	1.4955	-0.543184	0.802764	2.17791	0.935693	0.00137148	-0.0409752	-0.33536	0.450273	-0.211444	0	0	-0.152329	-0.0574842	0.0219994	0.110223	-0.306709	0	0	-0.570466	0.170061	-0.0472506	0.543102	-0.365245	0.182916	0.978541	1.34945	0	0	0.460292	-0.147959	-0.130578	0.96842	1.5708	0	0
0.1	-0.55518	1.4642	-0.919054	0.803479	2.17875	0.937776	-0.0484596	-0.0433404	-0.350093	0.453831	-0.208538	0	0	-0.204354	-0.0584712	0.0189107	0.104812	-0.306261	0	0	-0.595842	0.153658	0.0229395	0.481717	-0.413392	0.108278	0.989818	1.35397	0	0	0.556223	-0.103121	-0.0269502	0.835426	1.5708	0	0
0.11	-0.528664	1.45788	-0.943231	0.804591	2.17774	0.938025	-0.0536177	-0.0440807	-0.351929	0.46209	-0.207983	0	0	-0.213414	-0.0595437	0.0190907	0.104003	-0.302566	0	0	-0.598359	0.164628	0.00996184	0.49204	-0.402628	0.118622	0.979352	1.3687	0	0	0.543969	-0.1125	-0.0322663	0.835854	1.5708	0	0
0.12	-0.533207	1.45411	-0.937015	0.80575	2.17654	0.937971	-0.0532222	-0.0437284	-0.351604	0.472746	-0.207249	0	0	-0.224335	-0.0619642	0.0228473	0.0811624	-0.27123	0	0	-0.597108	0.181551	-0.0165412	0.517169	-0.380664	0.143532	0.959488	1.3959	0	0	0.516431	-0.130657	-0.0551037	0.85068	1.5708	0	0
0.13	-0.546879	1.45355	-0.922224	0.806923	2.17521	0.937905	-0.0482355	-0.0451494	-0.350277	0.485551	-0.20772	0	0	-0.2257	-0.0628284	0.0227669	0.0802783	-0.270612	0	0	-0.594494	0.199808	-0.0509622	0.547119	-0.349473	0.168546	0.937557	1.42969	0	0	0.479267	-0.152312	-0.088864	0.875427	1.5708	0	0
0.14	-0.574349	1.45496	-0.894041	0.808085	2.17377	0.937741	-0.0400043	-0.0460029	-0.345697	0.498372	-0.209511	0	0	-0.22433	-0.0635488	0.022594	0.0794313	-0.270189	0	0	-0.592105	0.215899	-0.078379	0.566265	-0.324405	0.183419	0.928542	1.45786	0	0	0.445566	-0.168877	-0.116208	0.899905	1.5708	0	0
0.15	-0.765179	1.47235	-0.714747	0.808452	2.17333	0.936173	-0.044399	-0.0421777	-0.107577	0.40857	-0.240028	0	0	-0.193635	-0.0625771	0.0195613	0.088029	-0.266083	0	0	-0.571545	0.232122	-0.114359	0.587325	-0.245602	0.126266	0.904793	1.5708	0	0	0.391893	-0.188816	-0.172492	0.9435	1.5708	0	0
0.16	-0.824455	1.47451	-0.656263	0.809239	2.17187	0.935866	-0.030663	-0.0410973	-0.0947179	0.426463	-0.237964	0	0	-0.189015	-0.0637039	0.0188131	0.0881802	-0.270711	0	0	-0.568242	0.238582	-0.127252	0.593716	-0.234828	0.134819	0.902146	1.5708	0	0	0.369995	-0.194285	-0.189729	0.964726	1.5708	0	0
0.17	-0.878732	1.47679	-0.602887	0.809997	2.17045	0.935692	-0.016256	-0.0408193	-0.081802	0.446178	-0.235639	0	0	-0.179447	-0.0634704	0.0158602	0.108393	-0.293515	0	0	-0.565674	0.244076	-0.141375	0.602016	-0.223831	0.146307	0.897403	1.5708	0	0	0.348447	-0.199347	-0.209506	0.986865	1.5708	0	0
0.18	-0.963257	1.47824	-0.51974	0.810689	2.16896	0.935165	0.00160262	-0.0383512	-0.0681165	0.468571	-0.233639	0	0	-0.179587	-0.065987	0.0194547	0.0862896	-0.276604	0	0	-0.56097	0.250581	-0.154164	0.609871	-0.213907	0.157968	0.892731	1.5708	0	0	0.327427	-0.20301	-0.229331	1.00843	1.5708	0	0
0.19	-0.99714	1.47872	-0.486048	0.811481	2.16753	0.935223	0.0138371	-0.0381274	-0.0588118	0.488662	-0.233922	0	0	-0.174276	-0.0659738	0.0190021	0.103466	-0.299404	0	0	-0.560688	0.2545	-0.164301	0.614713	-0.207283	0.16563	0.89088	1.5708	0	0	0.311923	-0.205752	-0.242326	1.02545	1.5708	0	0
0.2	-0.847423	1.46784	-0.622858	0.813597	2.16473	0.936372	0.0389189	-0.0453916	-0.29147	0.598727	-0.220018	0	0	-0.200324	-0.0688733	0.0237179	0.0935129	-0.296058	0	0	-0.575369	0.264357	-0.187122	0.622654	-0.199394	0.17853	0.883159	1.5708	0	0	0.295054	-0.210064	-0.2562	1.04347	1.5708	0	0
0.21	-0.907612	1.46841	-0.563204	0.814315	2.16314	0.935978	0.0540239	-0.0432369	-0.281293	0.617588	-0.218827	0	0	-0.20326	-0.0716389	0.028846	0.0699807	-0.275701	0	0	-0.571852	0.269758	-0.196891	0.627207	-0.193671	0.18808	0.880119	1.5708	0	0	0.2776	-0.211373	-0.270229	1.06046	1.5708	0	0
0.22	-0.935645	1.46742	-0.535043	0.814929	2.16154	0.936006	0.0642381	-0.0416511	-0.278712	0.631077	-0.214565	0	0	-0.204407	-0.0738581	0.0299092	0.0675059	-0.281137	0	0	-0.571537	0.27332	-0.20304	0.628281	-0.191033	0.192779	0.879438	1.5708	0	0	0.264468	-0.212544	-0.276512	1.07277	1.5708	0	0
0.23	-0.974786	1.46816	-0.497293	0.815248	2.16004	0.936044	0.0778729	-0.040111	-0.261999	0.649617	-0.227461	0	0	-0.198288	-0.0743674	0.0280853	0.0845832	-0.308943	0	0	-0.570554	0.275187	-0.210917	0.630829	-0.186368	0.199868	0.876917	1.5708	0	0	0.247522	-0.213674	-0.287265	1.08847	1.5708	0	0
0.24	-1.00289	1.46711	-0.469289	0.815636	2.15845	0.936095	0.088922	-0.0382718	-0.25513	0.664481	-0.227768	0	0	-0.199732	-0.0765859	0.0302309	0.0810504	-0.310301	0	0	-0.57059	0.277824	-0.216898	0.630975	-0.183512	0.203778	0.875974	1.5708	0	0	0.232858	-0.214251	-0.29366	1.10123	1.5708	0	0
0.25	-1.02513	1.46596	-0.446346	0.81625	2.15676	0.936132	0.0989663	-0.0373619	-0.251586	0.677543	-0.227724	0	0	-0.201764	-0.0783457	0.0327358	0.0775137	-0.311391	0	0	-0.570508	0.280579	-0.222864	0.630122	-0.181399	0.206356	0.875741	1.5708	0	0	0.218933	-0.214166	-0.299098	1.11253	1.5708	0	0
0.26	-1.04898	1.46426	-0.422051	0.816698	2.15504	0.936206	0.10884	-0.0353828	-0.248567	0.688355	-0.227654	0	0	-0.20412	-0.081086	0.0349074	0.0735759	-0.312582	0	0	-0.570668	0.283373	-0.22736	0.628399	-0.180205	0.209114	0.876556	1.5708	0	0	0.206087	-0.213903	-0.303908	1.12294	1.5708	0	0
0.27	-1.07506	1.46207	-0.395689	0.816987	2.15334	0.93632	0.118672	-0.0324577	-0.245953	0.696908	-0.227558	0	0	-0.206163	-0.0845313	0.0367497	0.0699075	-0.313631	0	0	-0.570922	0.286313	-0.230673	0.626067	-0.179364	0.211817	0.878091	1.5708	0	0	0.194339	-0.213494	-0.308382	1.13274	1.5708	0	0
0.28	-1.10203	1.46	-0.367662	0.817494	2.15156	0.936389	0.128293	-0.0304832	-0.246035	0.703233	-0.227306	0	0	-0.207747	-0.0875941	0.0389635	0.0663765	-0.314423	0	0	-0.57042	0.289822	-0.234276	0.623234	-0.179207	0.214708	0.88065	1.5708	0	0	0.183501	-0.212462	-0.312728	1.14168	1.5708	0	0
0.29	-1.12646	1.4583	-0.341491	0.818217	2.14973	0.936402	0.137512	-0.0295997	-0.247347	0.707382	-0.227425	0	0	-0.209309	-0.0900622	0.0417894	0.0630255	-0.315208	0	0	-0.569246	0.293521	-0.238173	0.619895	-0.179439	0.216776	0.88383	1.5708	0	0	0.174016	-0.210935	-0.316567	1.149	1.5708	0	0
0.3	-1.15036	1.4563	-0.316263	0.818727	2.14794	0.936421	0.146792	-0.027679	-0.247134	0.709962	-0.229039	0	0	-0.211048	-0.09318	0.0438544	0.0596256	-0.315834	0	0	-0.5685	0.296491	-0.240612	0.615844	-0.179568	0.216897	0.887258	1.5708	0	0	0.165691	-0.209477	-0.319841	1.1552	1.5708	0	0
0.31	-1.17262	1.45385	-0.293033	0.819051	2.14616	0.936474	0.155977	-0.0248702	-0.246591	0.711423	-0.231138	0	0	-0.2126	-0.096778	0.0442624	0.0569628	-0.315988	0	0	-0.567882	0.299308	-0.241537	0.611491	-0.180018	0.216033	0.890354	1.5708	0	0	0.158806	-0.208324	-0.321383	1.16017	1.5708	0	0
0.32	-1.47829	1.45602	-0.00347656	0.817345	2.1454	0.934176	0.17183	-0.00516829	0.00561672	0.646317	-0.227099	0	0	-0.17396	-0.0983562	0.0392627	0.0658984	-0.306872	0	0	-0.565998	0.243642	-0.0714519	0.429977	-0.305463	0.028344	1.08539	1.5708	0	0	0.259055	-0.152759	-0.16941	1.14684	1.5708	0	0
0.33	-1.51047	1.45969	0.0320619	0.816899	2.14354	0.93392	0.18457	-0.00902237	0.00508415	0.650201	-0.226833	0	0	-0.171643	-0.0959429	0.0457603	0.0658261	-0.299909	0	0	-0.654239	0.195295	0.345589	-0.123682	-0.396641	-0.582394	1.57733	1.5398	0	0	0.498796	0.0183134	0.22993	1.00152	1.5708	0	0
0.34	-1.57861	1.45645	0.100132	0.816965	2.1415	0.933433	0.201581	-0.00579526	0.00812543	0.65068	-0.229636	0	0	-0.170934	-0.0998636	0.0492988	0.0456385	-0.276919	0	0	-0.651988	0.204259	0.344853	-0.129951	-0.389951	-0.585159	1.59379	1.54705	0	0	0.485705	0.0107358	0.226495	1.01687	1.5708	0	0
0.35	-1.61572	1.45414	0.137605	0.817194	2.13949	0.933292	0.214749	-0.00442743	0.00835662	0.649377	-0.232854	0	0	-0.169382	-0.102048	0.0500883	0.0434305	-0.278043	0	0	-0.649086	0.210748	0.336189	-0.12546	-0.386748	-0.575758	1.59577	1.55175	0	0	0.472072	0.00151258	0.219177	1.02912	1.5708	0	0
0.36	-1.63329	1.45167	0.155647	0.81764	2.13743	0.93319	0.225549	-0.00350365	0.00661049	0.647141	-0.235084	0	0	-0.170151	-0.104073	0.0494563	0.0411681	-0.278394	0	0	-0.643648	0.220022	0.318266	-0.108144	-0.385597	-0.552495	1.58766	1.55392	0	0	0.456414	-0.0125073	0.207781	1.0371	1.5708	0	0
